<svg width="1200" height="1200" id="ssamples" background-color="white"><g background-color="white" transform="translate(60,20)"><g transform="translate(0,560)" class="x axis" shape-rendering="crispEdges" stroke="black" stroke-width="1.6875px" fill="none"><g class="tick" transform="translate(47.72386954289649,0)" style="opacity: 1;"><line y2="6" x2="0"></line><text dy=".71em" y="9" x="0" style="text-anchor: middle;">-20</text></g><g class="tick" transform="translate(562.5,0)" style="opacity: 1;"><line y2="6" x2="0"></line><text dy=".71em" y="9" x="0" style="text-anchor: middle;">0</text></g><g class="tick" transform="translate(1077.2761304571036,0)" style="opacity: 1;"><line y2="6" x2="0"></line><text dy=".71em" y="9" x="0" style="text-anchor: middle;">20</text></g><path class="domain" d="M0,6V0H1125V6"></path><text class="label" x="1125" y="-6.75" style="text-anchor: end; font-style: normal; font-variant: normal; font-weight: normal; font-size: 15.749999999999998px; line-height: normal; font-family: sans-serif;">PC  1 (3) 19.97</text></g><g transform="translate(562.5,0)" class="y axis" shape-rendering="crispEdges" stroke="black" stroke-width="1.6875px" fill="none"><g class="tick" transform="translate(0,1072.4882365439607)" style="opacity: 1;"><line x2="-6" y2="0"></line><text dy=".32em" x="-9" y="0" style="text-anchor: end;">-20</text></g><g class="tick" transform="translate(0,560)" style="opacity: 1;"><line x2="-6" y2="0"></line><text dy=".32em" x="-9" y="0" style="text-anchor: end;">0</text></g><g class="tick" transform="translate(0,47.51176345603916)" style="opacity: 1;"><line x2="-6" y2="0"></line><text dy=".32em" x="-9" y="0" style="text-anchor: end;">20</text></g><path class="domain" d="M-6,0H0V1120H-6"></path><text class="label" transform="rotate(-90)" y="15.749999999999998" style="text-anchor: end; font-style: normal; font-variant: normal; font-weight: normal; font-size: 15.749999999999998px; line-height: normal; font-family: sans-serif;">PC  2 (2) 27.20</text></g><text class="dodo" x="587.5625731034526" y="483.17704801203996" style="font-style: normal; font-variant: normal; font-weight: normal; font-size: 15.749999999999998px; line-height: normal; font-family: sans-serif;">CANCER</text><text class="dodo" x="594.8112220211714" y="508.935452426336" style="font-style: normal; font-variant: normal; font-weight: normal; font-size: 15.749999999999998px; line-height: normal; font-family: sans-serif;">TUMOR</text><text class="dodo" x="873.0086306230355" y="588.7933871432559" style="font-style: normal; font-variant: normal; font-weight: normal; font-size: 15.749999999999998px; line-height: normal; font-family: sans-serif;">DEPRESSION</text><text class="dodo" x="543.6833156789023" y="281.6254458428459" style="font-style: normal; font-variant: normal; font-weight: normal; font-size: 15.749999999999998px; line-height: normal; font-family: sans-serif;">PSORIASIS</text><text class="dodo" x="589.3102148455167" y="501.120518719385" style="font-style: normal; font-variant: normal; font-weight: normal; font-size: 15.749999999999998px; line-height: normal; font-family: sans-serif;">OBESITY</text><text class="dodo" x="562.1153806972015" y="484.82365096319324" style="font-style: normal; font-variant: normal; font-weight: normal; font-size: 15.749999999999998px; line-height: normal; font-family: sans-serif;">INFLAMMATION</text><text class="dodo" x="525.1352181021165" y="555.6433375107528" style="font-style: normal; font-variant: normal; font-weight: normal; font-size: 15.749999999999998px; line-height: normal; font-family: sans-serif;">TYPE 2 DIABETES</text><text class="dodo" x="561.4583952314155" y="715.95363368221" style="font-style: normal; font-variant: normal; font-weight: normal; font-size: 15.749999999999998px; line-height: normal; font-family: sans-serif;">CARDIOVASCULAR</text><text class="dodo" x="590.9760695229078" y="691.1094872894529" style="font-style: normal; font-variant: normal; font-weight: normal; font-size: 15.749999999999998px; line-height: normal; font-family: sans-serif;">ANTICOAGULANT</text><text class="dodo" x="571.9371704023151" y="298.13724783034206" style="font-style: normal; font-variant: normal; font-weight: normal; font-size: 15.749999999999998px; line-height: normal; font-family: sans-serif;">WOUND HEALING</text><text class="dodo" x="541.184421616206" y="682.264057611508" style="font-style: normal; font-variant: normal; font-weight: normal; font-size: 15.749999999999998px; line-height: normal; font-family: sans-serif;">SEDATIVE</text><text class="dodo" x="554.0392231565596" y="560.8684063662082" style="font-style: normal; font-variant: normal; font-weight: normal; font-size: 15.749999999999998px; line-height: normal; font-family: sans-serif;">ANALGESIC</text><text class="dodo" x="525.4643539490929" y="378.09381023660035" style="font-style: normal; font-variant: normal; font-weight: normal; font-size: 15.749999999999998px; line-height: normal; font-family: sans-serif;">TUBERCULOSIS</text><text class="dodo" x="460.2314866656284" y="716.3019271129391" style="font-style: normal; font-variant: normal; font-weight: normal; font-size: 15.749999999999998px; line-height: normal; font-family: sans-serif;">EPILEPSY</text><text class="dodo" x="395.16269003138876" y="445.044690052502" style="font-style: normal; font-variant: normal; font-weight: normal; font-size: 15.749999999999998px; line-height: normal; font-family: sans-serif;">ASTHMA</text><text class="dodo" x="538.0449691187824" y="470.82941122887786" style="font-style: normal; font-variant: normal; font-weight: normal; font-size: 15.749999999999998px; line-height: normal; font-family: sans-serif;">RHEUMATOID ARTHRITIS</text><text class="dodo" x="914.0625" y="587.5556675711387" style="font-style: normal; font-variant: normal; font-weight: normal; font-size: 15.749999999999998px; line-height: normal; font-family: sans-serif;">BIPOLAR DISORDER</text><text class="dodo" x="573.7466818025214" y="729.0341106644427" style="font-style: normal; font-variant: normal; font-weight: normal; font-size: 15.749999999999998px; line-height: normal; font-family: sans-serif;">STROKE</text><text class="dodo" x="577.7564193565179" y="535.5307881886396" style="font-style: normal; font-variant: normal; font-weight: normal; font-size: 15.749999999999998px; line-height: normal; font-family: sans-serif;">DIURETIC</text><text class="dodo" x="680.7470463264245" y="546.0985853551585" style="font-style: normal; font-variant: normal; font-weight: normal; font-size: 15.749999999999998px; line-height: normal; font-family: sans-serif;">MULTIPLE SCLEROSIS</text><text class="dodo" x="540.6736161377372" y="762.2425645182523" style="font-style: normal; font-variant: normal; font-weight: normal; font-size: 15.749999999999998px; line-height: normal; font-family: sans-serif;">PSYCHOACTIVE</text><text class="dodo" x="460.7994081659598" y="631.8646255250538" style="font-style: normal; font-variant: normal; font-weight: normal; font-size: 15.749999999999998px; line-height: normal; font-family: sans-serif;">STIMULANT</text><text class="dodo" x="486.15325167838586" y="403.9721918461633" style="font-style: normal; font-variant: normal; font-weight: normal; font-size: 15.749999999999998px; line-height: normal; font-family: sans-serif;">ATOPIC DERMATITIS</text><text class="dodo" x="433.59655682848114" y="577.989158442276" style="font-style: normal; font-variant: normal; font-weight: normal; font-size: 15.749999999999998px; line-height: normal; font-family: sans-serif;">ANTIPSYCHOTIC</text><text class="dodo" x="489.6964762979017" y="717.231418657529" style="font-style: normal; font-variant: normal; font-weight: normal; font-size: 15.749999999999998px; line-height: normal; font-family: sans-serif;">SCHIZOPHRENIA</text><text class="dodo" x="453.64270864037746" y="705.7593772028965" style="font-style: normal; font-variant: normal; font-weight: normal; font-size: 15.749999999999998px; line-height: normal; font-family: sans-serif;">AUTISM</text><path class="point" transform="translate(587.5625731034526,483.17704801203996)" d="M0,6.021418892015602A6.021418892015602,6.021418892015602 0 1,1 0,-6.021418892015602A6.021418892015602,6.021418892015602 0 1,1 0,6.021418892015602Z" style="fill: #1f77b4;"></path><path class="point" transform="translate(594.8112220211714,508.935452426336)" d="M0,6.021418892015602A6.021418892015602,6.021418892015602 0 1,1 0,-6.021418892015602A6.021418892015602,6.021418892015602 0 1,1 0,6.021418892015602Z" style="fill: #1f77b4;"></path><path class="point" transform="translate(873.0086306230355,588.7933871432559)" d="M0,6.021418892015602A6.021418892015602,6.021418892015602 0 1,1 0,-6.021418892015602A6.021418892015602,6.021418892015602 0 1,1 0,6.021418892015602Z" style="fill: #1f77b4;"></path><path class="point" transform="translate(543.6833156789023,281.6254458428459)" d="M0,6.021418892015602A6.021418892015602,6.021418892015602 0 1,1 0,-6.021418892015602A6.021418892015602,6.021418892015602 0 1,1 0,6.021418892015602Z" style="fill: #1f77b4;"></path><path class="point" transform="translate(589.3102148455167,501.120518719385)" d="M0,6.021418892015602A6.021418892015602,6.021418892015602 0 1,1 0,-6.021418892015602A6.021418892015602,6.021418892015602 0 1,1 0,6.021418892015602Z" style="fill: #1f77b4;"></path><path class="point" transform="translate(562.1153806972015,484.82365096319324)" d="M0,6.021418892015602A6.021418892015602,6.021418892015602 0 1,1 0,-6.021418892015602A6.021418892015602,6.021418892015602 0 1,1 0,6.021418892015602Z" style="fill: #1f77b4;"></path><path class="point" transform="translate(525.1352181021165,555.6433375107528)" d="M0,6.021418892015602A6.021418892015602,6.021418892015602 0 1,1 0,-6.021418892015602A6.021418892015602,6.021418892015602 0 1,1 0,6.021418892015602Z" style="fill: #1f77b4;"></path><path class="point" transform="translate(561.4583952314155,715.95363368221)" d="M0,6.021418892015602A6.021418892015602,6.021418892015602 0 1,1 0,-6.021418892015602A6.021418892015602,6.021418892015602 0 1,1 0,6.021418892015602Z" style="fill: #1f77b4;"></path><path class="point" transform="translate(590.9760695229078,691.1094872894529)" d="M0,6.021418892015602A6.021418892015602,6.021418892015602 0 1,1 0,-6.021418892015602A6.021418892015602,6.021418892015602 0 1,1 0,6.021418892015602Z" style="fill: #1f77b4;"></path><path class="point" transform="translate(571.9371704023151,298.13724783034206)" d="M0,6.021418892015602A6.021418892015602,6.021418892015602 0 1,1 0,-6.021418892015602A6.021418892015602,6.021418892015602 0 1,1 0,6.021418892015602Z" style="fill: #1f77b4;"></path><path class="point" transform="translate(541.184421616206,682.264057611508)" d="M0,6.021418892015602A6.021418892015602,6.021418892015602 0 1,1 0,-6.021418892015602A6.021418892015602,6.021418892015602 0 1,1 0,6.021418892015602Z" style="fill: #1f77b4;"></path><path class="point" transform="translate(554.0392231565596,560.8684063662082)" d="M0,6.021418892015602A6.021418892015602,6.021418892015602 0 1,1 0,-6.021418892015602A6.021418892015602,6.021418892015602 0 1,1 0,6.021418892015602Z" style="fill: #1f77b4;"></path><path class="point" transform="translate(525.4643539490929,378.09381023660035)" d="M0,6.021418892015602A6.021418892015602,6.021418892015602 0 1,1 0,-6.021418892015602A6.021418892015602,6.021418892015602 0 1,1 0,6.021418892015602Z" style="fill: #1f77b4;"></path><path class="point" transform="translate(460.2314866656284,716.3019271129391)" d="M0,6.021418892015602A6.021418892015602,6.021418892015602 0 1,1 0,-6.021418892015602A6.021418892015602,6.021418892015602 0 1,1 0,6.021418892015602Z" style="fill: #1f77b4;"></path><path class="point" transform="translate(395.16269003138876,445.044690052502)" d="M0,6.021418892015602A6.021418892015602,6.021418892015602 0 1,1 0,-6.021418892015602A6.021418892015602,6.021418892015602 0 1,1 0,6.021418892015602Z" style="fill: #1f77b4;"></path><path class="point" transform="translate(538.0449691187824,470.82941122887786)" d="M0,6.021418892015602A6.021418892015602,6.021418892015602 0 1,1 0,-6.021418892015602A6.021418892015602,6.021418892015602 0 1,1 0,6.021418892015602Z" style="fill: #1f77b4;"></path><path class="point" transform="translate(914.0625,587.5556675711387)" d="M0,6.021418892015602A6.021418892015602,6.021418892015602 0 1,1 0,-6.021418892015602A6.021418892015602,6.021418892015602 0 1,1 0,6.021418892015602Z" style="fill: #1f77b4;"></path><path class="point" transform="translate(573.7466818025214,729.0341106644427)" d="M0,6.021418892015602A6.021418892015602,6.021418892015602 0 1,1 0,-6.021418892015602A6.021418892015602,6.021418892015602 0 1,1 0,6.021418892015602Z" style="fill: #1f77b4;"></path><path class="point" transform="translate(577.7564193565179,535.5307881886396)" d="M0,6.021418892015602A6.021418892015602,6.021418892015602 0 1,1 0,-6.021418892015602A6.021418892015602,6.021418892015602 0 1,1 0,6.021418892015602Z" style="fill: #1f77b4;"></path><path class="point" transform="translate(680.7470463264245,546.0985853551585)" d="M0,6.021418892015602A6.021418892015602,6.021418892015602 0 1,1 0,-6.021418892015602A6.021418892015602,6.021418892015602 0 1,1 0,6.021418892015602Z" style="fill: #1f77b4;"></path><path class="point" transform="translate(540.6736161377372,762.2425645182523)" d="M0,6.021418892015602A6.021418892015602,6.021418892015602 0 1,1 0,-6.021418892015602A6.021418892015602,6.021418892015602 0 1,1 0,6.021418892015602Z" style="fill: #1f77b4;"></path><path class="point" transform="translate(460.7994081659598,631.8646255250538)" d="M0,6.021418892015602A6.021418892015602,6.021418892015602 0 1,1 0,-6.021418892015602A6.021418892015602,6.021418892015602 0 1,1 0,6.021418892015602Z" style="fill: #1f77b4;"></path><path class="point" transform="translate(486.15325167838586,403.9721918461633)" d="M0,6.021418892015602A6.021418892015602,6.021418892015602 0 1,1 0,-6.021418892015602A6.021418892015602,6.021418892015602 0 1,1 0,6.021418892015602Z" style="fill: #1f77b4;"></path><path class="point" transform="translate(433.59655682848114,577.989158442276)" d="M0,6.021418892015602A6.021418892015602,6.021418892015602 0 1,1 0,-6.021418892015602A6.021418892015602,6.021418892015602 0 1,1 0,6.021418892015602Z" style="fill: #1f77b4;"></path><path class="point" transform="translate(489.6964762979017,717.231418657529)" d="M0,6.021418892015602A6.021418892015602,6.021418892015602 0 1,1 0,-6.021418892015602A6.021418892015602,6.021418892015602 0 1,1 0,6.021418892015602Z" style="fill: #1f77b4;"></path><path class="point" transform="translate(453.64270864037746,705.7593772028965)" d="M0,6.021418892015602A6.021418892015602,6.021418892015602 0 1,1 0,-6.021418892015602A6.021418892015602,6.021418892015602 0 1,1 0,6.021418892015602Z" style="fill: #1f77b4;"></path></g></svg>
