<?xml version="1.0" encoding="UTF-8" standalone="no"?>
<svg
   xmlns:dc="http://purl.org/dc/elements/1.1/"
   xmlns:cc="http://creativecommons.org/ns#"
   xmlns:rdf="http://www.w3.org/1999/02/22-rdf-syntax-ns#"
   xmlns:svg="http://www.w3.org/2000/svg"
   xmlns="http://www.w3.org/2000/svg"
   xmlns:sodipodi="http://sodipodi.sourceforge.net/DTD/sodipodi-0.dtd"
   xmlns:inkscape="http://www.inkscape.org/namespaces/inkscape"
   width="2400"
   height="2400"
   id="normal"
   background-color="white"
   version="1.1"
   inkscape:version="0.48.4 r9939"
   sodipodi:docname="herbs_rnaseq.svg">
  <metadata
     id="metadata5068">
    <rdf:RDF>
      <cc:Work
         rdf:about="">
        <dc:format>image/svg+xml</dc:format>
        <dc:type
           rdf:resource="http://purl.org/dc/dcmitype/StillImage" />
        <dc:title></dc:title>
      </cc:Work>
    </rdf:RDF>
  </metadata>
  <defs
     id="defs5066" />
  <sodipodi:namedview
     pagecolor="#ffffff"
     bordercolor="#666666"
     borderopacity="1"
     objecttolerance="10"
     gridtolerance="10"
     guidetolerance="10"
     inkscape:pageopacity="1"
     inkscape:pageshadow="2"
     inkscape:window-width="1280"
     inkscape:window-height="977"
     id="namedview5064"
     showgrid="false"
     inkscape:zoom="0.55625733"
     inkscape:cx="978.50084"
     inkscape:cy="794.02121"
     inkscape:window-x="-3"
     inkscape:window-y="-3"
     inkscape:window-maximized="1"
     inkscape:current-layer="normal"
     showborder="false"
     inkscape:showpageshadow="false" />
  <path
     style="fill:none;stroke:#000000;stroke-width:3.48749995px"
     class="domain"
     d="m 60,1186 v -6 h 2325 v 6"
     id="path4992"
     inkscape:connector-curvature="0" />
  <path
     style="fill:none;stroke:#000000;stroke-width:3.48749995px"
     class="domain"
     d="m 1216.5,20 h 6 v 2320 h -6"
     id="path5016"
     inkscape:connector-curvature="0" />
  <text
     id="text5020"
     style="font-size:64px;font-style:normal;font-variant:normal;font-weight:normal;font-stretch:normal;text-align:start;line-height:125%;writing-mode:lr-tb;text-anchor:start;font-family:Sans;-inkscape-font-specification:Sans"
     y="921.84869"
     x="341.33063"
     class="dodo"
     sodipodi:linespacing="125%">asthma</text>
  <text
     id="text5022"
     style="font-size:64px;font-style:normal;font-variant:normal;font-weight:normal;font-stretch:normal;text-align:start;line-height:125%;writing-mode:lr-tb;text-anchor:start;font-family:Sans;-inkscape-font-specification:Sans"
     y="1664.3417"
     x="575.46033"
     class="dodo"
     sodipodi:linespacing="125%">atopic dermatitis</text>
  <text
     id="text5024"
     style="font-size:64px;font-style:normal;font-variant:normal;font-weight:normal;font-stretch:normal;text-align:start;line-height:125%;writing-mode:lr-tb;text-anchor:start;font-family:Sans;-inkscape-font-specification:Sans"
     y="1342.7086"
     x="845.5545"
     class="dodo"
     sodipodi:linespacing="125%">autism</text>
  <text
     id="text5026"
     style="font-size:64px;font-style:normal;font-variant:normal;font-weight:normal;font-stretch:normal;text-align:start;line-height:125%;writing-mode:lr-tb;text-anchor:start;font-family:Sans;-inkscape-font-specification:Sans"
     y="1069.7611"
     x="1307.4708"
     class="dodo"
     sodipodi:linespacing="125%">bipolar disorder</text>
  <text
     id="text5028"
     style="font-size:64px;font-style:normal;font-variant:normal;font-weight:normal;font-stretch:normal;text-align:start;line-height:125%;writing-mode:lr;text-anchor:start;font-family:Sans;-inkscape-font-specification:Sans"
     y="1031.9397"
     x="1912.9426"
     class="dodo"
     sodipodi:linespacing="125%">cardiovascular</text>
  <text
     id="text5030"
     style="font-size:64px;font-style:normal;font-variant:normal;font-weight:normal;font-stretch:normal;text-align:start;line-height:125%;writing-mode:lr-tb;text-anchor:start;font-family:Sans;-inkscape-font-specification:Sans"
     y="1257.7604"
     x="1945.467"
     class="dodo"
     sodipodi:linespacing="125%">obesity</text>
  <text
     id="text5032"
     style="font-size:64px;font-style:normal;font-variant:normal;font-weight:normal;font-stretch:normal;text-align:start;line-height:125%;writing-mode:lr-tb;text-anchor:start;font-family:Sans;-inkscape-font-specification:Sans"
     y="1463.0834"
     x="1843.3051"
     class="dodo"
     sodipodi:linespacing="125%">psoriasis</text>
  <text
     id="text5034"
     style="font-size:64px;font-style:normal;font-variant:normal;font-weight:normal;font-stretch:normal;text-align:start;line-height:125%;writing-mode:lr-tb;text-anchor:start;font-family:Sans;-inkscape-font-specification:Sans"
     y="1458.8373"
     x="317.88162"
     class="dodo"
     sodipodi:linespacing="125%">schizophernia</text>
  <text
     id="text5036"
     style="font-size:64px;font-style:normal;font-variant:normal;font-weight:normal;font-stretch:normal;text-align:start;line-height:125%;writing-mode:lr-tb;text-anchor:start;font-family:Sans;-inkscape-font-specification:Sans"
     y="1271.5479"
     x="456.17953"
     class="dodo"
     sodipodi:linespacing="125%">stroke</text>
  <text
     id="text5038"
     style="font-size:64px;font-style:normal;font-variant:normal;font-weight:normal;font-stretch:normal;text-align:start;line-height:125%;writing-mode:lr-tb;text-anchor:start;font-family:Sans;-inkscape-font-specification:Sans"
     y="1102.2513"
     x="4.8643708"
     class="dodo"
     sodipodi:linespacing="125%">type 2 diabetes</text>
  <text
     id="text5040"
     style="font-size:64px;font-style:normal;font-variant:normal;font-weight:normal;font-stretch:normal;text-align:start;line-height:125%;writing-mode:lr-tb;text-anchor:start;font-family:Sans;-inkscape-font-specification:Sans"
     y="601.6861"
     x="287.16339"
     class="dodo"
     sodipodi:linespacing="125%">vulnerabilty to tuberculosis</text>
  <path
     inkscape:connector-curvature="0"
     id="path5042"
     style="fill:#1f77b4"
     d="m 589.43126,1003.1505 a 30.965327,30.965327 0 1 1 0,-61.93068 30.965327,30.965327 0 0 1 0,61.93068 z"
     class="point" />
  <path
     inkscape:connector-curvature="0"
     id="path5044"
     style="fill:#1f77b4"
     d="m 1086.0267,1609.0162 a 30.96552,30.96552 0 1 1 0,-61.931 30.96552,30.96552 0 0 1 0,61.931 z"
     class="point" />
  <path
     inkscape:connector-curvature="0"
     id="path5046"
     style="fill:#1f77b4"
     d="m 978.59779,1290.9785 a 30.96552,30.96552 0 1 1 0,-61.931 30.96552,30.96552 0 0 1 0,61.931 z"
     class="point" />
  <path
     inkscape:connector-curvature="0"
     id="path5048"
     style="fill:#1f77b4"
     d="m 1807.2508,1161.8494 a 30.96552,30.96552 0 1 1 0,-61.931 30.96552,30.96552 0 0 1 0,61.931 z"
     class="point" />
  <path
     inkscape:connector-curvature="0"
     id="path5050"
     style="fill:#1f77b4"
     d="m 1938.1221,1106.0507 a 30.96552,30.96552 0 1 1 0,-61.931 30.96552,30.96552 0 0 1 0,61.931 z"
     class="point" />
  <path
     inkscape:connector-curvature="0"
     id="path5052"
     style="fill:#1f77b4"
     d="m 1949.0738,1198.8394 a 30.96552,30.96552 0 1 1 0,-61.931 30.96552,30.96552 0 0 1 0,61.931 z"
     class="point" />
  <path
     inkscape:connector-curvature="0"
     id="path5054"
     style="fill:#1f77b4"
     d="m 1843.3163,1404.1623 a 30.96552,30.96552 0 1 1 0,-61.931 30.96552,30.96552 0 0 1 0,61.931 z"
     class="point" />
  <path
     inkscape:connector-curvature="0"
     id="path5056"
     style="fill:#1f77b4"
     d="m 731.37059,1396.3208 a 30.96552,30.96552 0 1 1 0,-61.931 30.96552,30.96552 0 0 1 0,61.931 z"
     class="point" />
  <path
     inkscape:connector-curvature="0"
     id="path5058"
     style="fill:#1f77b4"
     d="m 733.04108,1284.536 a 30.96552,30.96552 0 1 1 0,-61.931 30.96552,30.96552 0 0 1 0,61.931 z"
     class="point" />
  <path
     inkscape:connector-curvature="0"
     id="path5060"
     style="fill:#1f77b4"
     d="m 533.408,1172.7668 a 30.96552,30.96552 0 1 1 0,-61.931 30.96552,30.96552 0 0 1 0,61.931 z"
     class="point" />
  <path
     inkscape:connector-curvature="0"
     id="path5062"
     style="fill:#1f77b4"
     d="m 1164.4692,697.36968 a 30.965327,30.965327 0 1 1 0,-61.93064 30.965327,30.965327 0 0 1 0,61.93064 z"
     class="point" />
</svg>
