<?xml version="1.0" encoding="UTF-8" standalone="no"?>
<!-- Created with Inkscape (http://www.inkscape.org/) -->

<svg
   xmlns:dc="http://purl.org/dc/elements/1.1/"
   xmlns:cc="http://creativecommons.org/ns#"
   xmlns:rdf="http://www.w3.org/1999/02/22-rdf-syntax-ns#"
   xmlns:svg="http://www.w3.org/2000/svg"
   xmlns="http://www.w3.org/2000/svg"
   xmlns:sodipodi="http://sodipodi.sourceforge.net/DTD/sodipodi-0.dtd"
   xmlns:inkscape="http://www.inkscape.org/namespaces/inkscape"
   width="210mm"
   height="297mm"
   viewBox="0 0 210 297"
   version="1.1"
   id="svg2378"
   inkscape:version="0.92.4 (5da689c313, 2019-01-14)"
   sodipodi:docname="pathways_terms.svg"
   inkscape:export-filename="C:\Users\sergey\Documents\herbs\sbio-images\pathways_terms.png"
   inkscape:export-xdpi="400"
   inkscape:export-ydpi="400">
  <defs
     id="defs2372">
    <clipPath
       id="clipEmfPath1"
       clipPathUnits="userSpaceOnUse">
      <path
         id="path2393"
         d="M 0,0 L 604.61104,0 L 604.61104,340.07718 L 0,340.07718 z" />
    </clipPath>
    <pattern
       y="0"
       x="0"
       height="6"
       width="6"
       patternUnits="userSpaceOnUse"
       id="EMFhbasepattern" />
    <filter
       inkscape:collect="always"
       style="color-interpolation-filters:sRGB"
       id="filter3840"
       x="-0.024"
       width="1.048"
       y="-0.024"
       height="1.048">
      <feGaussianBlur
         inkscape:collect="always"
         stdDeviation="0.62900256"
         id="feGaussianBlur3842" />
    </filter>
    <filter
       inkscape:collect="always"
       style="color-interpolation-filters:sRGB"
       id="filter3900"
       x="-0.19287488"
       width="1.3857498"
       y="-0.19287549"
       height="1.385751">
      <feGaussianBlur
         inkscape:collect="always"
         stdDeviation="0.17310452"
         id="feGaussianBlur3902" />
    </filter>
    <filter
       inkscape:collect="always"
       style="color-interpolation-filters:sRGB"
       id="filter3904"
       x="-0.032238839"
       width="1.0644777"
       y="-0.032238858"
       height="1.0644777">
      <feGaussianBlur
         inkscape:collect="always"
         stdDeviation="0.17310452"
         id="feGaussianBlur3906" />
    </filter>
    <filter
       inkscape:collect="always"
       style="color-interpolation-filters:sRGB"
       id="filter3908"
       x="-0.098728623"
       width="1.1974572"
       y="-0.098728623"
       height="1.1974572">
      <feGaussianBlur
         inkscape:collect="always"
         stdDeviation="0.17310452"
         id="feGaussianBlur3910" />
    </filter>
    <filter
       inkscape:collect="always"
       style="color-interpolation-filters:sRGB"
       id="filter3912"
       x="-0.043889091"
       width="1.0877782"
       y="-0.043889087"
       height="1.0877782">
      <feGaussianBlur
         inkscape:collect="always"
         stdDeviation="0.17310452"
         id="feGaussianBlur3914" />
    </filter>
    <filter
       inkscape:collect="always"
       style="color-interpolation-filters:sRGB"
       id="filter3916"
       x="-0.077799705"
       width="1.1555994"
       y="-0.077799058"
       height="1.1555981">
      <feGaussianBlur
         inkscape:collect="always"
         stdDeviation="0.17310452"
         id="feGaussianBlur3918" />
    </filter>
    <filter
       inkscape:collect="always"
       style="color-interpolation-filters:sRGB"
       id="filter3920"
       x="-0.042526669"
       width="1.0850533"
       y="-0.042526669"
       height="1.0850533">
      <feGaussianBlur
         inkscape:collect="always"
         stdDeviation="0.17310452"
         id="feGaussianBlur3922" />
    </filter>
    <filter
       inkscape:collect="always"
       style="color-interpolation-filters:sRGB"
       id="filter3924"
       x="-0.050065772"
       width="1.1001315"
       y="-0.050065814"
       height="1.1001316">
      <feGaussianBlur
         inkscape:collect="always"
         stdDeviation="0.17310452"
         id="feGaussianBlur3926" />
    </filter>
  </defs>
  <sodipodi:namedview
     id="base"
     pagecolor="#ffffff"
     bordercolor="#666666"
     borderopacity="1.0"
     inkscape:pageopacity="1"
     inkscape:pageshadow="2"
     inkscape:zoom="0.98994949"
     inkscape:cx="580.0894"
     inkscape:cy="1091.6252"
     inkscape:document-units="mm"
     inkscape:current-layer="layer1"
     showgrid="false"
     inkscape:window-width="1304"
     inkscape:window-height="746"
     inkscape:window-x="-8"
     inkscape:window-y="-8"
     inkscape:window-maximized="1"
     showborder="false" />
  <metadata
     id="metadata2375">
    <rdf:RDF>
      <cc:Work
         rdf:about="">
        <dc:format>image/svg+xml</dc:format>
        <dc:type
           rdf:resource="http://purl.org/dc/dcmitype/StillImage" />
        <dc:title></dc:title>
      </cc:Work>
    </rdf:RDF>
  </metadata>
  <g
     inkscape:label="Layer 1"
     inkscape:groupmode="layer"
     id="layer1">
    <path
       id="path2507"
       d="m 94.325217,295.44653 c -5.819745,0 -10.732516,-1.32267 -15.75866,-4.23254 -4.988353,-2.87208 -8.616246,-6.49997 -11.488328,-11.48833 -2.909872,-5.02614 -4.232541,-9.93891 -4.232541,-15.72087 0,-5.81974 1.322669,-10.73251 4.232541,-15.75866 2.872082,-4.98835 6.499975,-8.61624 11.488328,-11.48832 5.026144,-2.90988 9.938915,-4.23254 15.72087,-4.23254 5.819743,0 10.732513,1.32266 15.758663,4.23254 4.98835,2.87208 8.61624,6.49997 11.48832,11.48832 2.90988,5.02615 4.23255,9.93892 4.23255,15.72087 0,5.81975 -1.32267,10.73252 -4.23255,15.75866 -2.87208,4.98836 -6.49997,8.61625 -11.48832,11.48833 -5.02615,2.90987 -9.93892,4.23254 -15.720873,4.23254 z"
       clip-path="url(#clipEmfPath1)"
       style="fill:#ffaaaa;fill-opacity:1;fill-rule:evenodd;stroke:none;filter:url(#filter3840)"
       inkscape:connector-curvature="0"
       transform="matrix(-0.27610952,0.47823572,-0.47823572,-0.27610952,277.03686,64.488478)" />
    <path
       id="path2509"
       d="m 143.03724,240.15896 c -0.75581,0 -1.39825,-0.18896 -2.07848,-0.56686 -0.68023,-0.37791 -1.13372,-0.83139 -1.51162,-1.51162 -0.37791,-0.68023 -0.56686,-1.32267 -0.56686,-2.07848 0,-0.75582 0.18895,-1.39825 0.56686,-2.07848 0.3779,-0.68023 0.83139,-1.13372 1.51162,-1.51163 0.68023,-0.3779 1.32267,-0.56685 2.07848,-0.56685 0.75581,0 1.39825,0.18895 2.07848,0.56685 0.68023,0.37791 1.13372,0.8314 1.51162,1.51163 0.37791,0.68023 0.56686,1.32266 0.56686,2.07848 0,0.75581 -0.18895,1.39825 -0.56686,2.07848 -0.3779,0.68023 -0.83139,1.13371 -1.51162,1.51162 -0.68023,0.3779 -1.32267,0.56686 -2.07848,0.56686 z"
       clip-path="url(#clipEmfPath1)"
       style="fill:#212178;fill-opacity:1;fill-rule:evenodd;stroke:none;filter:url(#filter3924)"
       inkscape:connector-curvature="0"
       transform="matrix(-0.27610952,0.47823572,-0.47823572,-0.27610952,282.64952,27.070743)" />
    <path
       id="path2511"
       d="m 191.82484,212.91197 c -0.90697,0 -1.66278,-0.18895 -2.41859,-0.64244 -0.79361,-0.45349 -1.36046,-1.02035 -1.81395,-1.77616 -0.45349,-0.7936 -0.64244,-1.54941 -0.64244,-2.45638 0,-0.90698 0.18895,-1.66279 0.64244,-2.4186 0.45349,-0.7936 1.02034,-1.36046 1.81395,-1.81394 0.75581,-0.45349 1.51162,-0.64244 2.41859,-0.64244 0.90697,0 1.66279,0.18895 2.45639,0.64244 0.75581,0.45348 1.32267,1.02034 1.77615,1.81394 0.45349,0.75581 0.64244,1.51162 0.64244,2.4186 0,0.90697 -0.18895,1.66278 -0.64244,2.45638 -0.45348,0.75581 -1.02034,1.32267 -1.77615,1.77616 -0.7936,0.45349 -1.54942,0.64244 -2.45639,0.64244 z"
       clip-path="url(#clipEmfPath1)"
       style="fill:#212178;fill-opacity:1;fill-rule:evenodd;stroke:none;filter:url(#filter3920)"
       inkscape:connector-curvature="0"
       transform="matrix(-0.27610952,0.47823572,-0.47823572,-0.27610952,273.12208,3.6757435)" />
    <path
       id="path2513"
       d="m 240.57465,182.75511 c -0.49127,0 -0.90697,-0.11337 -1.32267,-0.37791 -0.45348,-0.22674 -0.75581,-0.52906 -0.98255,-0.94476 -0.26453,-0.45349 -0.37791,-0.86918 -0.37791,-1.36046 0,-0.49128 0.11338,-0.90697 0.37791,-1.32267 0.22674,-0.45349 0.52907,-0.75581 0.98255,-0.98255 0.4157,-0.26454 0.8314,-0.37791 1.32267,-0.37791 0.49128,0 0.90698,0.11337 1.36046,0.37791 0.4157,0.22674 0.71802,0.52906 0.94477,0.98255 0.26453,0.4157 0.3779,0.83139 0.3779,1.32267 0,0.49128 -0.11337,0.90697 -0.3779,1.36046 -0.22675,0.4157 -0.52907,0.71802 -0.94477,0.94476 -0.45348,0.26454 -0.86918,0.37791 -1.36046,0.37791 z"
       clip-path="url(#clipEmfPath1)"
       style="fill:#212178;fill-opacity:1;fill-rule:evenodd;stroke:none;filter:url(#filter3916)"
       inkscape:connector-curvature="0"
       transform="matrix(-0.27610952,0.47823572,-0.47823572,-0.27610952,282.83689,-29.269486)" />
    <path
       id="path2515"
       d="m 289.32446,156.86858 c -0.90697,0 -1.62499,-0.18895 -2.3808,-0.64244 -0.75581,-0.4157 -1.32267,-0.98255 -1.73837,-1.73836 -0.45348,-0.75582 -0.64244,-1.47384 -0.64244,-2.34302 0,-0.90697 0.18896,-1.62499 0.64244,-2.3808 0.4157,-0.75581 0.98256,-1.32267 1.73837,-1.73837 0.75581,-0.45349 1.47383,-0.64244 2.3808,-0.64244 0.86919,0 1.58721,0.18895 2.34302,0.64244 0.75581,0.4157 1.32267,0.98256 1.73836,1.73837 0.45349,0.75581 0.64244,1.47383 0.64244,2.3808 0,0.86918 -0.18895,1.5872 -0.64244,2.34302 -0.41569,0.75581 -0.98255,1.32266 -1.73836,1.73836 -0.75581,0.45349 -1.47383,0.64244 -2.34302,0.64244 z"
       clip-path="url(#clipEmfPath1)"
       style="fill:#212178;fill-opacity:1;fill-rule:evenodd;stroke:none;filter:url(#filter3912)"
       inkscape:connector-curvature="0"
       transform="matrix(-0.27610952,0.47823572,-0.47823572,-0.27610952,273.29372,-50.092514)" />
    <path
       id="path2517"
       d="m 338.07428,126.25823 c -0.37791,0 -0.71802,-0.0756 -1.05814,-0.30232 -0.34011,-0.18895 -0.56686,-0.4157 -0.75581,-0.75581 -0.22674,-0.34012 -0.30232,-0.68023 -0.30232,-1.05814 0,-0.3779 0.0756,-0.71802 0.30232,-1.05813 0.18895,-0.34012 0.4157,-0.56686 0.75581,-0.75581 0.34012,-0.22675 0.68023,-0.30233 1.05814,-0.30233 0.3779,0 0.71802,0.0756 1.05813,0.30233 0.34012,0.18895 0.56686,0.41569 0.75581,0.75581 0.22675,0.34011 0.30233,0.68023 0.30233,1.05813 0,0.37791 -0.0756,0.71802 -0.30233,1.05814 -0.18895,0.34011 -0.41569,0.56686 -0.75581,0.75581 -0.34011,0.22674 -0.68023,0.30232 -1.05813,0.30232 z"
       clip-path="url(#clipEmfPath1)"
       style="fill:#212178;fill-opacity:1;fill-rule:evenodd;stroke:none;filter:url(#filter3908)"
       inkscape:connector-curvature="0"
       transform="matrix(-0.27610952,0.47823572,-0.47823572,-0.27610952,283.00564,-85.599806)" />
    <path
       id="path2519"
       d="m 386.86188,102.63914 c -1.2093,0 -2.22964,-0.26454 -3.24999,-0.86918 -1.02034,-0.60465 -1.73836,-1.32267 -2.34301,-2.343018 -0.60465,-1.020345 -0.86919,-2.04069 -0.86919,-3.212197 0,-1.209298 0.26454,-2.229643 0.86919,-3.249988 0.60465,-1.020345 1.32267,-1.738365 2.34301,-2.343014 1.02035,-0.604649 2.04069,-0.869183 3.24999,-0.869183 1.17151,0 2.19185,0.264534 3.2122,0.869183 1.02034,0.604649 1.73836,1.322669 2.34301,2.343014 0.60465,1.020345 0.86918,2.04069 0.86918,3.249988 0,1.171507 -0.26453,2.191852 -0.86918,3.212197 -0.60465,1.020348 -1.32267,1.738368 -2.34301,2.343018 -1.02035,0.60464 -2.04069,0.86918 -3.2122,0.86918 z"
       clip-path="url(#clipEmfPath1)"
       style="fill:#212178;fill-opacity:1;fill-rule:evenodd;stroke:none;filter:url(#filter3904)"
       inkscape:connector-curvature="0"
       transform="matrix(-0.27610952,0.47823572,-0.47823572,-0.27610952,273.477,-128.76746)" />
    <path
       id="path2521"
       d="m 435.61169,69.307872 c -0.22674,0 -0.37791,-0.03779 -0.56686,-0.151162 -0.15116,-0.07558 -0.30232,-0.226744 -0.3779,-0.377906 -0.11338,-0.188953 -0.15117,-0.340115 -0.15117,-0.529068 0,-0.226743 0.0378,-0.377905 0.15117,-0.566858 0.0756,-0.151162 0.22674,-0.302324 0.3779,-0.377905 0.18895,-0.113372 0.34012,-0.151163 0.56686,-0.151163 0.18895,0 0.34012,0.03779 0.52907,0.151163 0.15116,0.07558 0.30232,0.226743 0.3779,0.377905 0.11338,0.188953 0.15117,0.340115 0.15117,0.566858 0,0.188953 -0.0378,0.340115 -0.15117,0.529068 -0.0756,0.151162 -0.22674,0.302325 -0.3779,0.377906 -0.18895,0.113371 -0.34012,0.151162 -0.52907,0.151162 z"
       clip-path="url(#clipEmfPath1)"
       style="fill:#212178;fill-opacity:1;fill-rule:evenodd;stroke:none;filter:url(#filter3900)"
       inkscape:connector-curvature="0"
       transform="matrix(0.27610952,-0.47823572,0.47823572,0.27610952,-22.610751,237.02383)" />
    <text
       xml:space="preserve"
       style="font-style:normal;font-variant:normal;font-weight:normal;font-stretch:normal;font-size:4.23333311px;line-height:1.25;font-family:sans-serif;-inkscape-font-specification:'sans-serif, Normal';font-variant-ligatures:normal;font-variant-caps:normal;font-variant-numeric:normal;font-feature-settings:normal;text-align:start;letter-spacing:0px;word-spacing:0px;writing-mode:lr-tb;text-anchor:start;fill:#000000;fill-opacity:1;stroke:none;stroke-width:0.26458332"
       x="89.894897"
       y="31.601357"
       id="text3704"><tspan
         sodipodi:role="line"
         id="tspan3820"
         x="89.894897"
         y="31.601357">+&quot;NF&quot;</tspan></text>
    <text
       xml:space="preserve"
       style="font-style:normal;font-variant:normal;font-weight:normal;font-stretch:normal;font-size:4.23333311px;line-height:1.25;font-family:sans-serif;-inkscape-font-specification:'sans-serif, Normal';font-variant-ligatures:normal;font-variant-caps:normal;font-variant-numeric:normal;font-feature-settings:normal;text-align:start;letter-spacing:0px;word-spacing:0px;writing-mode:lr-tb;text-anchor:start;fill:#000000;fill-opacity:1;stroke:none;stroke-width:0.26458332"
       x="87.191185"
       y="39.844273"
       id="text3704-7"><tspan
         sodipodi:role="line"
         id="tspan3822"
         x="87.191185"
         y="39.844273">+&quot;TGF&quot;</tspan></text>
    <text
       xml:space="preserve"
       style="font-style:normal;font-variant:normal;font-weight:normal;font-stretch:normal;font-size:4.23333311px;line-height:1.25;font-family:sans-serif;-inkscape-font-specification:'sans-serif, Normal';font-variant-ligatures:normal;font-variant-caps:normal;font-variant-numeric:normal;font-feature-settings:normal;text-align:start;letter-spacing:0px;word-spacing:0px;writing-mode:lr-tb;text-anchor:start;fill:#000000;fill-opacity:1;stroke:none;stroke-width:0.26458332"
       x="83.619308"
       y="48.091328"
       id="text3704-5"><tspan
         sodipodi:role="line"
         id="tspan3824"
         x="83.619308"
         y="48.091328">+&quot;MAPK&quot;</tspan></text>
    <text
       xml:space="preserve"
       style="font-style:normal;font-variant:normal;font-weight:normal;font-stretch:normal;font-size:4.23333311px;line-height:1.25;font-family:sans-serif;-inkscape-font-specification:'sans-serif, Normal';font-variant-ligatures:normal;font-variant-caps:normal;font-variant-numeric:normal;font-feature-settings:normal;text-align:start;letter-spacing:0px;word-spacing:0px;writing-mode:lr-tb;text-anchor:start;fill:#000000;fill-opacity:1;stroke:none;stroke-width:0.26458332"
       x="146.79248"
       y="30.986074"
       id="text3704-79"><tspan
         sodipodi:role="line"
         id="tspan3826"
         x="146.79248"
         y="30.986074">+&quot;Wnt&quot;</tspan></text>
    <text
       xml:space="preserve"
       style="font-style:normal;font-variant:normal;font-weight:normal;font-stretch:normal;font-size:4.23333311px;line-height:1.25;font-family:sans-serif;-inkscape-font-specification:'sans-serif, Normal';font-variant-ligatures:normal;font-variant-caps:normal;font-variant-numeric:normal;font-feature-settings:normal;text-align:start;letter-spacing:0px;word-spacing:0px;writing-mode:lr-tb;text-anchor:start;fill:#000000;fill-opacity:1;stroke:none;stroke-width:0.26458332"
       x="146.79248"
       y="37.15937"
       id="text3704-1"><tspan
         sodipodi:role="line"
         id="tspan3828"
         x="146.79248"
         y="37.15937">+&quot;Notch&quot;</tspan></text>
    <text
       xml:space="preserve"
       style="font-style:normal;font-variant:normal;font-weight:normal;font-stretch:normal;font-size:4.23333311px;line-height:1.25;font-family:sans-serif;-inkscape-font-specification:'sans-serif, Normal';font-variant-ligatures:normal;font-variant-caps:normal;font-variant-numeric:normal;font-feature-settings:normal;text-align:start;letter-spacing:0px;word-spacing:0px;writing-mode:lr-tb;text-anchor:start;fill:#000000;fill-opacity:1;stroke:none;stroke-width:0.26458332"
       x="146.79248"
       y="42.838669"
       id="text3704-3"><tspan
         sodipodi:role="line"
         id="tspan3830"
         x="146.79248"
         y="42.838669">+&quot;JAK&quot;</tspan></text>
    <text
       xml:space="preserve"
       style="font-style:normal;font-variant:normal;font-weight:normal;font-stretch:normal;font-size:4.23333333px;line-height:1.25;font-family:sans-serif;-inkscape-font-specification:'sans-serif, Normal';font-variant-ligatures:normal;font-variant-caps:normal;font-variant-numeric:normal;font-feature-settings:normal;text-align:start;letter-spacing:0px;word-spacing:0px;writing-mode:lr;text-anchor:start;fill:#000000;fill-opacity:1;stroke:none;stroke-width:0.26458332;"
       x="146.79248"
       y="49.400585"
       id="text3704-77"><tspan
         sodipodi:role="line"
         id="tspan3834">+&quot;BMAL1&quot;</tspan></text>
    <text
       xml:space="preserve"
       style="font-style:normal;font-variant:normal;font-weight:normal;font-stretch:normal;font-size:4.93888889px;line-height:1.25;font-family:sans-serif;-inkscape-font-specification:'sans-serif, Normal';font-variant-ligatures:normal;font-variant-caps:normal;font-variant-numeric:normal;font-feature-settings:normal;text-align:start;letter-spacing:0px;word-spacing:0px;writing-mode:lr;text-anchor:start;fill:#000000;fill-opacity:1;stroke:none;stroke-width:0.26458332;"
       x="124.86922"
       y="16.306437"
       id="text3704-36"><tspan
         sodipodi:role="line"
         id="tspan3818">&quot;Expression&quot;</tspan></text>
  </g>
</svg>
