<?xml version="1.0" encoding="UTF-8" standalone="no"?>
<svg
   xmlns:dc="http://purl.org/dc/elements/1.1/"
   xmlns:cc="http://creativecommons.org/ns#"
   xmlns:rdf="http://www.w3.org/1999/02/22-rdf-syntax-ns#"
   xmlns:svg="http://www.w3.org/2000/svg"
   xmlns="http://www.w3.org/2000/svg"
   xmlns:sodipodi="http://sodipodi.sourceforge.net/DTD/sodipodi-0.dtd"
   xmlns:inkscape="http://www.inkscape.org/namespaces/inkscape"
   width="1200"
   height="1200"
   id="ssamples"
   background-color="white"
   version="1.1"
   sodipodi:docname="textmining_comparative.svg"
   inkscape:version="0.48.4 r9939"
   inkscape:export-filename="/home/sergey/work/herbs/sbio-images/textmining_comparative.png"
   inkscape:export-xdpi="200"
   inkscape:export-ydpi="200">
  <metadata
     id="metadata77">
    <rdf:RDF>
      <cc:Work
         rdf:about="">
        <dc:format>image/svg+xml</dc:format>
        <dc:type
           rdf:resource="http://purl.org/dc/dcmitype/StillImage" />
        <dc:title />
      </cc:Work>
    </rdf:RDF>
  </metadata>
  <defs
     id="defs75" />
  <sodipodi:namedview
     pagecolor="#ffffff"
     bordercolor="#666666"
     borderopacity="1"
     objecttolerance="10"
     gridtolerance="10"
     guidetolerance="10"
     inkscape:pageopacity="1"
     inkscape:pageshadow="2"
     inkscape:window-width="1280"
     inkscape:window-height="977"
     id="namedview73"
     showgrid="false"
     inkscape:zoom="0.5"
     inkscape:cx="2248.1637"
     inkscape:cy="645.37083"
     inkscape:window-x="-3"
     inkscape:window-y="-3"
     inkscape:window-maximized="1"
     inkscape:current-layer="ssamples"
     inkscape:showpageshadow="false"
     showborder="false">
    <inkscape:grid
       type="xygrid"
       id="grid4131"
       empspacing="5"
       visible="true"
       enabled="true"
       snapvisiblegridlinesonly="true" />
  </sodipodi:namedview>
  <g
     id="g3071"
     transform="translate(2212,0)">
    <g
       id="g6"
       style="fill:none;stroke:#000000;stroke-width:1.6875px"
       transform="translate(629.5,600)"
       class="tick">
      <line
         y1="0"
         x1="0"
         id="line2"
         x2="0"
         y2="6" />
      <text
         id="text4"
         style="text-anchor:middle"
         x="0"
         y="9"
         dy="-1.5418264e-06">0</text>
    </g>
    <path
       inkscape:connector-curvature="0"
       id="path8"
       d="m 170.91206,606.08794 v -6.17588 H 1080.088 v 6.17588"
       class="domain"
       style="fill:none;stroke:#000000;stroke-width:1.82411301;stroke-miterlimit:4;stroke-dasharray:none" />
    <text
       sodipodi:linespacing="125%"
       id="text10"
       style="font-size:14px;font-style:normal;font-variant:normal;font-weight:normal;font-stretch:normal;text-align:end;line-height:125%;writing-mode:lr-tb;text-anchor:end;fill:#000000;fill-opacity:1;stroke:none;font-family:Serif;-inkscape-font-specification:Serif"
       y="591.14948"
       x="1079.4142"
       class="label">PC 1 (1) 34.31</text>
    <g
       id="g18"
       style="fill:none;stroke:#000000;stroke-width:2;stroke-miterlimit:4;stroke-dasharray:none"
       transform="translate(629.5,600)"
       class="tick">
      <line
         y1="0"
         x1="0"
         id="line14"
         y2="0"
         x2="-6"
         style="stroke-width:2;stroke-miterlimit:4;stroke-dasharray:none" />
      <text
         id="text16"
         style="text-anchor:end;stroke-width:2;stroke-miterlimit:4;stroke-dasharray:none"
         y="0"
         x="-9"
         dy="-1.5418264e-06">0</text>
    </g>
    <path
       inkscape:connector-curvature="0"
       id="path20"
       d="m 623.40035,225.98557 h 6.17297 v 694.16411 h -6.17297"
       class="domain"
       style="fill:none;stroke:#000000;stroke-width:1.59706807;stroke-miterlimit:4;stroke-dasharray:none" />
    <text
       sodipodi:linespacing="125%"
       x="-219.75735"
       id="text22"
       style="font-size:14px;font-style:normal;font-variant:normal;font-weight:normal;font-stretch:normal;text-align:end;line-height:125%;writing-mode:lr-tb;text-anchor:end;fill:#000000;fill-opacity:1;stroke:none;font-family:Serif;-inkscape-font-specification:Serif"
       y="648.07843"
       transform="matrix(0,-1,1,0,0,0)"
       class="label">PC 2 (2) 11.02</text>
    <text
       class="dodo"
       x="366.05252"
       y="718.92242"
       style="font-size:24px;font-style:normal;font-variant:normal;font-weight:normal;font-stretch:normal;text-align:start;line-height:normal;writing-mode:lr-tb;text-anchor:start;font-family:sans-serif;-inkscape-font-specification:'sans-serif, Normal'"
       id="text26">asthma</text>
    <text
       class="dodo"
       x="335.31042"
       y="474.31061"
       style="font-size:24px;font-style:normal;font-variant:normal;font-weight:normal;font-stretch:normal;text-align:start;line-height:normal;writing-mode:lr-tb;text-anchor:start;font-family:sans-serif;-inkscape-font-specification:'sans-serif, Normal'"
       id="text28">atopic dermatitis</text>
    <text
       class="dodo"
       x="499.65085"
       y="581.24554"
       style="font-size:24px;font-style:normal;font-variant:normal;font-weight:normal;font-stretch:normal;text-align:start;line-height:normal;writing-mode:lr-tb;text-anchor:start;font-family:sans-serif;-inkscape-font-specification:'sans-serif, Normal'"
       id="text30">autism</text>
    <text
       class="dodo"
       x="692.71155"
       y="672.96295"
       style="font-size:24px;font-style:normal;font-variant:normal;font-weight:normal;font-stretch:normal;text-align:start;line-height:normal;writing-mode:lr-tb;text-anchor:start;font-family:sans-serif;-inkscape-font-specification:'sans-serif, Normal'"
       id="text32">bipolar disorder</text>
    <text
       class="dodo"
       x="694.28894"
       y="726.00378"
       style="font-size:24px;font-style:normal;font-variant:normal;font-weight:normal;font-stretch:normal;text-align:start;line-height:normal;writing-mode:lr-tb;text-anchor:start;font-family:sans-serif;-inkscape-font-specification:'sans-serif, Normal'"
       id="text34">
      <tspan
         y="726.00378"
         x="694.28894"
         id="tspan3816"
         sodipodi:role="line">heart failure</tspan>
    </text>
    <text
       class="dodo"
       x="976.0625"
       y="702.32117"
       style="font-size:24px;font-style:normal;font-variant:normal;font-weight:normal;font-stretch:normal;text-align:start;line-height:normal;writing-mode:lr-tb;text-anchor:start;font-family:sans-serif;-inkscape-font-specification:'sans-serif, Normal'"
       id="text36">obesity</text>
    <text
       sodipodi:linespacing="125%"
       class="dodo"
       x="938.14844"
       y="346.77899"
       style="font-size:24px;font-style:normal;font-variant:normal;font-weight:normal;font-stretch:normal;text-align:start;line-height:125%;writing-mode:lr-tb;text-anchor:start;font-family:Sans;-inkscape-font-specification:Sans"
       id="text38">psoriasis</text>
    <text
       class="dodo"
       x="465.33826"
       y="517.86902"
       style="font-size:24px;font-style:normal;font-variant:normal;font-weight:normal;font-stretch:normal;text-align:start;line-height:normal;writing-mode:lr-tb;text-anchor:start;font-family:sans-serif;-inkscape-font-specification:'sans-serif, Normal'"
       id="text40">schizophernia</text>
    <text
       class="dodo"
       x="376.61804"
       y="523.33112"
       style="font-size:24px;font-style:normal;font-variant:normal;font-weight:normal;font-stretch:normal;text-align:start;line-height:normal;writing-mode:lr-tb;text-anchor:start;font-family:sans-serif;-inkscape-font-specification:'sans-serif, Normal'"
       id="text42">stroke</text>
    <text
       class="dodo"
       x="197.49283"
       y="566.42755"
       style="font-size:24px;font-style:normal;font-variant:normal;font-weight:normal;font-stretch:normal;text-align:start;line-height:normal;writing-mode:lr-tb;text-anchor:start;font-family:sans-serif;-inkscape-font-specification:'sans-serif, Normal'"
       id="text44">type 2 diabetes</text>
    <text
       class="dodo"
       x="251.82562"
       y="810.82672"
       style="font-size:24px;font-style:normal;font-variant:normal;font-weight:normal;font-stretch:normal;text-align:start;line-height:normal;writing-mode:lr-tb;text-anchor:start;font-family:sans-serif;-inkscape-font-specification:'sans-serif, Normal'"
       id="text46">vulnerabilty to tuberculosis</text>
    <path
       class="point"
       d="m 450.05251,700.99172 a 8.0692788,8.0692788 0 1 1 0,-16.13854 8.0692788,8.0692788 0 1 1 0,16.13854 z"
       style="fill:#1f77b4;stroke-width:1.34009552"
       id="path48"
       inkscape:connector-curvature="0" />
    <path
       class="point"
       d="m 534.3104,493.37989 a 8.0692788,8.0692788 0 1 1 0,-16.13854 8.0692788,8.0692788 0 1 1 0,16.13854 z"
       style="fill:#1f77b4;stroke-width:1.34009552"
       id="path50"
       inkscape:connector-curvature="0" />
    <path
       class="point"
       d="m 499.65085,597.31482 a 8.0692788,8.0692788 0 1 1 0,-16.13854 8.0692788,8.0692788 0 1 1 0,16.13854 z"
       style="fill:#1f77b4;stroke-width:1.34009552"
       id="path52"
       inkscape:connector-curvature="0" />
    <path
       class="point"
       d="m 794.71157,692.03222 a 8.0692787,8.0692788 0 1 1 0,-16.13854 8.0692787,8.0692788 0 1 1 0,16.13854 z"
       style="fill:#1f77b4;stroke-width:1.34009552"
       id="path54"
       inkscape:connector-curvature="0" />
    <path
       class="point"
       d="m 836.28892,707.07307 a 8.0692787,8.0692787 0 1 1 0,-16.13854 8.0692787,8.0692787 0 1 1 0,16.13854 z"
       style="fill:#1f77b4;stroke-width:1.34009552"
       id="path56"
       inkscape:connector-curvature="0" />
    <path
       class="point"
       d="m 981.0625,683.39046 a 8.0692787,8.0692788 0 1 1 0,-16.13854 8.0692787,8.0692788 0 1 1 0,16.13854 z"
       style="fill:#1f77b4;stroke-width:1.34009552"
       id="path58"
       inkscape:connector-curvature="0" />
    <path
       class="point"
       d="m 940.14846,363.84827 a 8.0692788,8.0692788 0 1 1 0,-16.13854 8.0692788,8.0692788 0 1 1 0,16.13854 z"
       style="fill:#1f77b4;stroke-width:1.34009552"
       id="path60"
       inkscape:connector-curvature="0" />
    <path
       class="point"
       d="m 471.33827,536.93828 a 8.0692788,8.0692788 0 1 1 0,-16.13854 8.0692788,8.0692788 0 1 1 0,16.13854 z"
       style="fill:#1f77b4;stroke-width:1.34009552"
       id="path62"
       inkscape:connector-curvature="0" />
    <path
       class="point"
       d="m 457.61805,538.40039 a 8.0692788,8.0692788 0 1 1 0,-16.13854 8.0692788,8.0692788 0 1 1 0,16.13854 z"
       style="fill:#1f77b4;stroke-width:1.34009552"
       id="path64"
       inkscape:connector-curvature="0" />
    <path
       class="point"
       d="m 383.49283,583.49683 a 8.0692788,8.0692788 0 1 1 0,-16.13854 8.0692788,8.0692788 0 1 1 0,16.13854 z"
       style="fill:#1f77b4;stroke-width:1.34009552"
       id="path66"
       inkscape:connector-curvature="0" />
    <path
       class="point"
       d="m 575.82563,791.89601 a 8.0692787,8.0692787 0 1 1 0,-16.13854 8.0692787,8.0692787 0 1 1 0,16.13854 z"
       style="fill:#1f77b4;stroke-width:1.34009552"
       id="path68"
       inkscape:connector-curvature="0" />
  </g>
  <g
     id="g3106">
    <text
       sodipodi:linespacing="125%"
       x="-221.41422"
       id="text51"
       style="font-size:14px;font-style:normal;font-variant:normal;font-weight:normal;font-stretch:normal;text-align:end;line-height:125%;writing-mode:lr-tb;text-anchor:end;fill:#000000;fill-opacity:1;stroke:none;font-family:Serif;-inkscape-font-specification:Serif"
       y="1834.3431"
       transform="matrix(0,-1,1,0,0,0)"
       class="label">PC 2 (2) 27.20</text>
    <path
       id="path25"
       d="m 1418.389,608.11107 v -6.22214 h 857.222 v 6.22214"
       class="domain"
       inkscape:connector-curvature="0"
       style="fill:none;stroke:#000000;stroke-width:1.77784979;stroke-miterlimit:4;stroke-dasharray:none" />
    <text
       sodipodi:linespacing="125%"
       id="text27"
       style="font-size:14px;font-style:normal;font-variant:normal;font-weight:normal;font-stretch:normal;text-align:end;line-height:125%;writing-mode:lr-tb;text-anchor:end;fill:#000000;fill-opacity:1;stroke:none;font-family:Serif;-inkscape-font-specification:Serif"
       y="590.32104"
       x="2274.9143"
       class="label">PC 1 (3) 19.97</text>
    <path
       id="path49"
       d="m 1808.8693,226.07242 h 6.2614 v 704.51706 h -6.2614"
       class="domain"
       inkscape:connector-curvature="0"
       style="fill:none;stroke:#000000;stroke-width:2.16044307;stroke-miterlimit:4;stroke-dasharray:none" />
    <text
       sodipodi:linespacing="125%"
       class="dodo"
       x="1824.5061"
       y="515.27759"
       style="font-size:11px;font-style:normal;font-variant:normal;font-weight:normal;font-stretch:normal;text-align:start;line-height:125%;writing-mode:lr-tb;text-anchor:start;font-family:Sans;-inkscape-font-specification:Sans"
       id="text53">CANCER</text>
    <text
       sodipodi:linespacing="125%"
       class="dodo"
       x="1849.0686"
       y="563.76385"
       style="font-size:11px;font-style:normal;font-variant:normal;font-weight:normal;font-stretch:normal;text-align:start;line-height:125%;writing-mode:lr-tb;text-anchor:start;font-family:Sans;-inkscape-font-specification:Sans"
       id="text55">TUMOR</text>
    <text
       sodipodi:linespacing="125%"
       class="dodo"
       x="2053.6262"
       y="622.34973"
       style="font-size:11px;font-style:normal;font-variant:normal;font-weight:normal;font-stretch:normal;text-align:start;line-height:125%;writing-mode:lr-tb;text-anchor:start;font-family:Sans;-inkscape-font-specification:Sans"
       id="text57">DEPRESSION</text>
    <text
       sodipodi:linespacing="125%"
       class="dodo"
       x="1702.8452"
       y="316.55438"
       style="font-size:18px;font-style:normal;font-variant:normal;font-weight:normal;font-stretch:normal;text-align:start;line-height:125%;writing-mode:lr-tb;text-anchor:start;font-family:Sans;-inkscape-font-specification:Sans"
       id="text59">PSORIASIS</text>
    <text
       sodipodi:linespacing="125%"
       class="dodo"
       x="1841.8103"
       y="543.12048"
       style="font-size:18px;font-style:normal;font-variant:normal;font-weight:normal;font-stretch:normal;text-align:start;line-height:125%;writing-mode:lr-tb;text-anchor:start;font-family:Sans;-inkscape-font-specification:Sans"
       id="text61">OBESITY</text>
    <text
       sodipodi:linespacing="125%"
       class="dodo"
       x="1719.4854"
       y="544.23779"
       style="font-size:11px;font-style:normal;font-variant:normal;font-weight:normal;font-stretch:normal;text-align:start;line-height:125%;writing-mode:lr-tb;text-anchor:start;font-family:Sans;-inkscape-font-specification:Sans"
       id="text63">INFLAMMATION</text>
    <text
       sodipodi:linespacing="125%"
       class="dodo"
       x="1622.7788"
       y="588.45093"
       style="font-size:18px;font-style:normal;font-variant:normal;font-weight:normal;font-stretch:normal;text-align:start;line-height:125%;writing-mode:lr-tb;text-anchor:start;font-family:Sans;-inkscape-font-specification:Sans"
       id="text65">TYPE 2 DIABETES</text>
    <text
       sodipodi:linespacing="125%"
       class="dodo"
       x="1820.9584"
       y="763.95361"
       style="font-size:18px;font-style:normal;font-variant:normal;font-weight:normal;font-stretch:normal;text-align:start;line-height:125%;writing-mode:lr-tb;text-anchor:start;font-family:Sans;-inkscape-font-specification:Sans"
       id="text67">CARDIOVASCULAR</text>
    <text
       sodipodi:linespacing="125%"
       class="dodo"
       x="1843.4761"
       y="733.1095"
       style="font-size:16px;font-style:normal;font-variant:normal;font-weight:normal;font-stretch:normal;text-align:start;line-height:125%;writing-mode:lr-tb;text-anchor:start;font-family:Sans;-inkscape-font-specification:Sans"
       id="text69">ANTICOAGULANT</text>
    <text
       sodipodi:linespacing="125%"
       class="dodo"
       x="1825.8514"
       y="358.522"
       style="font-size:11px;font-style:normal;font-variant:normal;font-weight:normal;font-stretch:normal;text-align:start;line-height:125%;writing-mode:lr-tb;text-anchor:start;font-family:Sans;-inkscape-font-specification:Sans"
       id="text71">WOUND HEALING</text>
    <text
       sodipodi:linespacing="125%"
       class="dodo"
       x="1744.187"
       y="717.19299"
       style="font-size:11px;font-style:normal;font-variant:normal;font-weight:normal;font-stretch:normal;text-align:start;line-height:125%;writing-mode:lr-tb;text-anchor:start;font-family:Sans;-inkscape-font-specification:Sans"
       id="text73">SEDATIVE</text>
    <text
       sodipodi:linespacing="125%"
       class="dodo"
       x="1743.5809"
       y="620.03998"
       style="font-size:11px;font-style:normal;font-variant:normal;font-weight:normal;font-stretch:normal;text-align:start;line-height:125%;writing-mode:lr-tb;text-anchor:start;font-family:Sans;-inkscape-font-specification:Sans"
       id="text75">ANALGESIC</text>
    <text
       sodipodi:linespacing="125%"
       class="dodo"
       x="1636.5431"
       y="411.60852"
       style="font-size:18px;font-style:normal;font-variant:normal;font-weight:normal;font-stretch:normal;text-align:start;line-height:125%;writing-mode:lr-tb;text-anchor:start;font-family:Sans;-inkscape-font-specification:Sans"
       id="text77">TUBERCULOSIS</text>
    <text
       sodipodi:linespacing="125%"
       class="dodo"
       x="1651.4594"
       y="764.81665"
       style="font-size:11px;font-style:normal;font-variant:normal;font-weight:normal;font-stretch:normal;text-align:start;line-height:125%;writing-mode:lr-tb;text-anchor:start;font-family:Sans;-inkscape-font-specification:Sans"
       id="text79">EPILEPSY</text>
    <text
       sodipodi:linespacing="125%"
       class="dodo"
       x="1564.2241"
       y="488.45889"
       style="font-size:18px;font-style:normal;font-variant:normal;font-weight:normal;font-stretch:normal;text-align:start;line-height:125%;writing-mode:lr-tb;text-anchor:start;font-family:Sans;-inkscape-font-specification:Sans"
       id="text81">ASTHMA</text>
    <text
       sodipodi:linespacing="125%"
       class="dodo"
       x="1670.084"
       y="504.34412"
       style="font-size:11px;font-style:normal;font-variant:normal;font-weight:normal;font-stretch:normal;text-align:start;line-height:125%;writing-mode:lr-tb;text-anchor:start;font-family:Sans;-inkscape-font-specification:Sans"
       id="text83">RHEUMATOID ARTHRITIS</text>
    <text
       sodipodi:linespacing="125%"
       class="dodo"
       x="2085.3494"
       y="655.35468"
       style="font-size:18px;font-style:normal;font-variant:normal;font-weight:normal;font-stretch:normal;text-align:start;line-height:125%;writing-mode:lr-tb;text-anchor:start;font-family:Sans;-inkscape-font-specification:Sans"
       id="text85">BIPOLAR DISORDER</text>
    <text
       sodipodi:linespacing="125%"
       class="dodo"
       x="1824.2467"
       y="789.03412"
       style="font-size:18px;font-style:normal;font-variant:normal;font-weight:normal;font-stretch:normal;text-align:start;line-height:125%;writing-mode:lr-tb;text-anchor:start;font-family:Sans;-inkscape-font-specification:Sans"
       id="text87">STROKE</text>
    <text
       sodipodi:linespacing="125%"
       class="dodo"
       x="1831.2563"
       y="591.53076"
       style="font-size:11px;font-style:normal;font-variant:normal;font-weight:normal;font-stretch:normal;text-align:start;line-height:125%;writing-mode:lr-tb;text-anchor:start;font-family:Sans;-inkscape-font-specification:Sans"
       id="text89">DIURETIC</text>
    <text
       sodipodi:linespacing="125%"
       class="dodo"
       x="1936.0754"
       y="583.85596"
       style="font-size:11px;font-style:normal;font-variant:normal;font-weight:normal;font-stretch:normal;text-align:start;line-height:125%;writing-mode:lr-tb;text-anchor:start;font-family:Sans;-inkscape-font-specification:Sans"
       id="text91">MULTIPLE SCLEROSIS</text>
    <text
       sodipodi:linespacing="125%"
       class="dodo"
       x="1712.5635"
       y="818.3847"
       style="font-size:11px;font-style:normal;font-variant:normal;font-weight:normal;font-stretch:normal;text-align:start;line-height:125%;writing-mode:lr-tb;text-anchor:start;font-family:Sans;-inkscape-font-specification:Sans"
       id="text93">PSYCHOACTIVE</text>
    <text
       sodipodi:linespacing="125%"
       class="dodo"
       x="1646.8314"
       y="685.17834"
       style="font-size:11px;font-style:normal;font-variant:normal;font-weight:normal;font-stretch:normal;text-align:start;line-height:125%;writing-mode:lr-tb;text-anchor:start;font-family:Sans;-inkscape-font-specification:Sans"
       id="text95">STIMULANT</text>
    <text
       sodipodi:linespacing="125%"
       class="dodo"
       x="1549.1487"
       y="441.72955"
       style="font-size:18px;font-style:normal;font-variant:normal;font-weight:normal;font-stretch:normal;text-align:start;line-height:125%;writing-mode:lr-tb;text-anchor:start;font-family:Sans;-inkscape-font-specification:Sans"
       id="text97">ATOPIC DERMATITIS</text>
    <text
       sodipodi:linespacing="125%"
       class="dodo"
       x="1599.8295"
       y="636.95972"
       style="font-size:11px;font-style:normal;font-variant:normal;font-weight:normal;font-stretch:normal;text-align:start;line-height:125%;writing-mode:lr-tb;text-anchor:start;font-family:Sans;-inkscape-font-specification:Sans"
       id="text99">ANTIPSYCHOTIC</text>
    <text
       sodipodi:linespacing="125%"
       class="dodo"
       x="1598.5741"
       y="785.17255"
       style="font-size:18px;font-style:normal;font-variant:normal;font-weight:normal;font-stretch:normal;text-align:start;line-height:125%;writing-mode:lr-tb;text-anchor:start;font-family:Sans;-inkscape-font-specification:Sans"
       id="text101">SCHIZOPHRENIA</text>
    <text
       sodipodi:linespacing="125%"
       class="dodo"
       x="1636.8463"
       y="743.51678"
       style="font-size:18px;font-style:normal;font-variant:normal;font-weight:normal;font-stretch:normal;text-align:start;line-height:125%;writing-mode:lr-tb;text-anchor:start;font-family:Sans;-inkscape-font-specification:Sans"
       id="text103">AUTISM</text>
    <path
       inkscape:connector-curvature="0"
       class="point"
       d="m 1840.0615,530.29984 a 5.1228016,5.1228016 0 1 1 0,-10.24558 5.1228016,5.1228016 0 0 1 0,10.24558 z"
       style="fill:#1f77b4"
       id="path105" />
    <path
       inkscape:connector-curvature="0"
       class="point"
       d="m 1847.3101,556.05824 a 5.1228016,5.1228016 0 1 1 0,-10.24558 5.1228016,5.1228016 0 0 1 0,10.24558 z"
       style="fill:#1f77b4"
       id="path107" />
    <path
       inkscape:connector-curvature="0"
       class="point"
       d="m 2125.5075,635.91618 a 5.1228016,5.1228016 0 1 1 0,-10.24558 5.1228016,5.1228016 0 0 1 0,10.24558 z"
       style="fill:#1f77b4"
       id="path109" />
    <path
       inkscape:connector-curvature="0"
       class="point"
       d="m 1796.1842,330.51411 a 6.88866,6.88866 0 1 1 0,-13.77732 6.88866,6.88866 0 0 1 0,13.77732 z"
       style="fill:#1f77b4"
       id="path111" />
    <path
       inkscape:connector-curvature="0"
       class="point"
       d="m 1841.8111,550.00918 a 6.88866,6.88866 0 1 1 0,-13.77732 6.88866,6.88866 0 0 1 0,13.77732 z"
       style="fill:#1f77b4"
       id="path113" />
    <path
       inkscape:connector-curvature="0"
       class="point"
       d="m 1814.6143,531.94644 a 5.1228016,5.1228016 0 1 1 0,-10.24558 5.1228016,5.1228016 0 0 1 0,10.24558 z"
       style="fill:#1f77b4"
       id="path115" />
    <path
       inkscape:connector-curvature="0"
       class="point"
       d="m 1777.6361,604.532 a 6.88866,6.88866 0 1 1 0,-13.77732 6.88866,6.88866 0 0 1 0,13.77732 z"
       style="fill:#1f77b4"
       id="path117" />
    <path
       inkscape:connector-curvature="0"
       class="point"
       d="m 1813.9593,764.84229 a 6.88866,6.88866 0 1 1 0,-13.77732 6.88866,6.88866 0 0 1 0,13.77732 z"
       style="fill:#1f77b4"
       id="path119" />
    <path
       inkscape:connector-curvature="0"
       class="point"
       d="m 1843.477,739.99815 a 6.88866,6.88866 0 1 1 0,-13.77732 6.88866,6.88866 0 0 1 0,13.77732 z"
       style="fill:#1f77b4"
       id="path121" />
    <path
       inkscape:connector-curvature="0"
       class="point"
       d="m 1824.4361,345.26004 a 5.1228016,5.1228016 0 1 1 0,-10.24558 5.1228016,5.1228016 0 0 1 0,10.24558 z"
       style="fill:#1f77b4"
       id="path123" />
    <path
       inkscape:connector-curvature="0"
       class="point"
       d="m 1793.6833,729.38685 a 5.1228016,5.1228016 0 1 1 0,-10.24558 5.1228016,5.1228016 0 0 1 0,10.24558 z"
       style="fill:#1f77b4"
       id="path125" />
    <path
       inkscape:connector-curvature="0"
       class="point"
       d="m 1806.5381,607.9912 a 5.1228016,5.1228016 0 1 1 0,-10.24558 5.1228016,5.1228016 0 0 1 0,10.24558 z"
       style="fill:#1f77b4"
       id="path127" />
    <path
       inkscape:connector-curvature="0"
       class="point"
       d="m 1777.9653,426.98247 a 6.88866,6.88866 0 1 1 0,-13.77732 6.88866,6.88866 0 0 1 0,13.77732 z"
       style="fill:#1f77b4"
       id="path129" />
    <path
       inkscape:connector-curvature="0"
       class="point"
       d="m 1712.7304,763.42472 a 5.1228016,5.1228016 0 1 1 0,-10.24558 5.1228016,5.1228016 0 0 1 0,10.24558 z"
       style="fill:#1f77b4"
       id="path131" />
    <path
       inkscape:connector-curvature="0"
       class="point"
       d="m 1647.6636,493.93335 a 6.88866,6.88866 0 1 1 0,-13.77732 6.88866,6.88866 0 0 1 0,13.77732 z"
       style="fill:#1f77b4"
       id="path133" />
    <path
       inkscape:connector-curvature="0"
       class="point"
       d="m 1790.5439,517.9522 a 5.1228016,5.1228016 0 1 1 0,-10.24558 5.1228016,5.1228016 0 0 1 0,10.24558 z"
       style="fill:#1f77b4"
       id="path135" />
    <path
       inkscape:connector-curvature="0"
       class="point"
       d="m 2166.5634,636.44433 a 6.88866,6.88866 0 1 1 0,-13.77732 6.88866,6.88866 0 0 1 0,13.77732 z"
       style="fill:#1f77b4"
       id="path137" />
    <path
       inkscape:connector-curvature="0"
       class="point"
       d="m 1826.2476,777.92277 a 6.88866,6.88866 0 1 1 0,-13.77732 6.88866,6.88866 0 0 1 0,13.77732 z"
       style="fill:#1f77b4"
       id="path139" />
    <path
       inkscape:connector-curvature="0"
       class="point"
       d="m 1830.2553,582.65358 a 5.1228016,5.1228016 0 1 1 0,-10.24558 5.1228016,5.1228016 0 0 1 0,10.24558 z"
       style="fill:#1f77b4"
       id="path141" />
    <path
       inkscape:connector-curvature="0"
       class="point"
       d="m 1933.246,593.22138 a 5.1228016,5.1228016 0 1 1 0,-10.24558 5.1228016,5.1228016 0 0 1 0,10.24558 z"
       style="fill:#1f77b4"
       id="path143" />
    <path
       inkscape:connector-curvature="0"
       class="point"
       d="m 1793.1725,809.36535 a 5.1228016,5.1228016 0 1 1 0,-10.24558 5.1228016,5.1228016 0 0 1 0,10.24558 z"
       style="fill:#1f77b4"
       id="path145" />
    <path
       inkscape:connector-curvature="0"
       class="point"
       d="m 1713.2983,678.98742 a 5.1228016,5.1228016 0 1 1 0,-10.24558 5.1228016,5.1228016 0 0 1 0,10.24558 z"
       style="fill:#1f77b4"
       id="path147" />
    <path
       inkscape:connector-curvature="0"
       class="point"
       d="m 1738.6542,452.86085 a 6.88866,6.88866 0 1 1 0,-13.77732 6.88866,6.88866 0 0 1 0,13.77732 z"
       style="fill:#1f77b4"
       id="path149" />
    <path
       inkscape:connector-curvature="0"
       class="point"
       d="m 1686.0955,625.11195 a 5.1228016,5.1228016 0 1 1 0,-10.24558 5.1228016,5.1228016 0 0 1 0,10.24558 z"
       style="fill:#1f77b4"
       id="path151" />
    <path
       inkscape:connector-curvature="0"
       class="point"
       d="m 1742.1974,766.12008 a 6.88866,6.88866 0 1 1 0,-13.77732 6.88866,6.88866 0 0 1 0,13.77732 z"
       style="fill:#1f77b4"
       id="path153" />
    <path
       inkscape:connector-curvature="0"
       class="point"
       d="m 1706.1436,754.64804 a 6.88866,6.88866 0 1 1 0,-13.77732 6.88866,6.88866 0 0 1 0,13.77732 z"
       style="fill:#1f77b4"
       id="path155" />
  </g>
</svg>
